<svg width="64" height="65" viewBox="0 0 64 65" fill="none" xmlns="http://www.w3.org/2000/svg">
<path fill-rule="evenodd" clip-rule="evenodd" d="M0 5.08558C0 9.12138 0.0321871 10.1511 0.155945 10.0738C1.39814 9.29835 4.55036 7.19146 8.16842 4.7183L12.6564 1.65038H24.4179H36.1793V2.16098C36.1793 2.66396 36.1627 2.68263 35.0877 3.38645C33.8686 4.18472 32.3763 5.1766 28.8811 7.51176C27.5774 8.38278 26.1177 9.35586 25.6374 9.67413C25.1571 9.9924 24.6572 10.3739 24.5265 10.5219L24.2888 10.7909L14.4836 10.7931C3.58487 10.7956 3.69054 10.7885 2.00533 11.6325C1.49583 11.8877 0.836117 12.3241 0.539446 12.6024L0 13.1084V19.159V25.2095L0.592593 25.7946C0.918456 26.1165 1.49396 26.5543 1.87135 26.7675C3.25938 27.5518 3.04593 27.5376 14.0585 27.5764C19.582 27.5958 24.1539 27.645 24.2186 27.6856C24.2844 27.727 24.3205 28.3969 24.3005 29.2091L24.2651 30.6589H14.1598H4.05458L3.12327 30.3614C2.01918 30.0086 0.93717 29.471 0.392858 29.005L0 28.6686V46.8343V65L31.9688 64.968L63.9376 64.936V38.3818C63.9376 23.777 63.8988 11.7881 63.8513 11.7398C63.8038 11.6915 63.0178 12.0499 62.1047 12.5363C59.0317 14.1729 52.4614 17.8022 52.3081 17.9475C52.1974 18.0525 52.1327 19.3245 52.0698 22.6296C51.993 26.6704 52.0046 27.1678 52.1757 27.1678C52.2814 27.1678 54.7185 25.9611 57.5914 24.4861C60.4643 23.0113 63.0533 21.6994 63.345 21.5708L63.8752 21.337V22.9744V24.6118L62.2222 25.4933C61.313 25.978 59.278 27.0468 57.6998 27.8683C56.1216 28.6899 54.1661 29.7291 53.3542 30.1779C52.5421 30.6266 51.7842 30.9905 51.67 30.9866C51.5556 30.9827 51.1251 30.9266 50.7135 30.8617C50.3018 30.7968 47.5673 30.739 44.6369 30.7331L39.3088 30.7224L39.2686 33.1028C39.2463 34.412 39.215 38.7882 39.1989 42.8277L39.1696 50.1724L44.6297 50.1155C50.6622 50.0527 50.3465 50.0937 51.961 49.1645C52.4413 48.888 54.1817 47.9602 55.8285 47.1027C57.4752 46.2451 59.9595 44.9469 61.3489 44.2177L63.8752 42.8919V44.5865V46.281L62.5965 46.9557C61.8932 47.3266 60.5277 48.0523 59.5622 48.5682C56.2211 50.3534 54.2024 51.4245 53.197 51.9451L52.1873 52.468L52.1095 56.2878C52.0666 58.3886 52.0718 60.1441 52.1211 60.1888C52.1702 60.2335 53.4175 59.6335 54.8928 58.8554C61.3876 55.4296 63.728 54.2086 63.7991 54.2086C63.8409 54.2086 63.8752 54.976 63.8752 55.9139C63.8752 57.5126 63.8595 57.6242 63.6235 57.7005C63.3555 57.787 58.7269 60.2968 52.9002 63.515C52.1685 63.9193 51.7794 64.0486 51.0912 64.1168C50.609 64.1645 49.8856 64.3283 49.4836 64.4805C48.7752 64.749 48.6168 64.7562 44.3062 64.7198L39.8596 64.6821L39.0431 64.3299C37.9142 63.843 37.0745 63.0604 36.5471 62.0035C36.1311 61.1697 36.1156 61.0863 36.0735 59.4523L36.0301 57.7632H32.6136H29.197L29.1638 61.2861L29.1306 64.8091L28.502 64.7936C27.7721 64.7757 27.049 64.4367 26.5107 63.8602L26.1365 63.4594V38.109V12.7587L28.6614 11.0448C30.0501 10.1022 31.5378 9.1078 31.9674 8.83498C32.397 8.56216 33.1134 8.10107 33.5595 7.81035C34.0055 7.51963 35.3909 6.62881 36.6382 5.83078L38.9061 4.37985L38.9462 3.04685L38.9864 1.71385H44.7875H50.5887L50.6275 2.12213C50.6732 2.60353 50.9028 2.42453 46.9708 4.97411C45.4612 5.95291 43.777 7.0527 43.2281 7.41807C42.6791 7.78331 41.5014 8.56318 40.6111 9.15096C39.7207 9.73875 38.3827 10.6339 37.6379 11.14L36.2838 12.0605H32.7383H29.193V17.8368V23.6131H32.6134H36.034L36.0754 21.4232C36.1147 19.3532 36.1354 19.1931 36.4547 18.4998C36.8377 17.6682 37.6462 16.817 38.4818 16.3659L39.0487 16.0598L39.0565 14.7267L39.0642 13.3934L39.961 12.8048C40.4541 12.4809 41.3068 11.9153 41.8558 11.5479C42.7843 10.9264 46.5606 8.52509 49.9025 6.43089C50.6916 5.93653 51.7583 5.24414 52.2729 4.89235L53.2086 4.2529L53.2441 2.95164L53.2797 1.65038H54.4472C55.8056 1.65038 55.7675 1.61229 55.7633 2.96205C55.7602 4.01778 55.5221 4.65483 54.7499 5.67324C54.1066 6.52191 53.5319 6.8935 46.9119 10.7431L41.5439 13.8644V14.9937V16.1229H42.6751H43.8064L45.7005 15.0895C46.7422 14.5213 47.8472 13.914 48.1559 13.7402C49.0581 13.2321 53.8659 10.5454 54.9552 9.94061C57.1259 8.73532 56.6731 8.83054 60.4688 8.78204L63.8615 8.73862L63.9077 9.41566C63.933 9.78801 63.9642 7.8219 63.9769 5.04635L64 0H32H0V5.08558ZM0.0568889 5.14156C0.0568889 7.93451 0.0733567 9.05905 0.0934425 7.64036C0.113528 6.2218 0.113528 3.93666 0.0934425 2.56227C0.073232 1.18802 0.0567641 2.34861 0.0568889 5.14156ZM0.0577622 19.1698C0.0577622 22.5562 0.0738558 23.9416 0.0934425 22.2484C0.113154 20.5551 0.113154 17.7845 0.0934425 16.0912C0.0738558 14.3979 0.0577622 15.7833 0.0577622 19.1698ZM3.61793 19.2226V22.3221L8.14035 22.273C10.6277 22.2459 14.3329 22.2222 16.3743 22.2202L20.0858 22.2166V19.1698V16.1229H11.8519H3.61793V19.2226ZM39.448 18.9413C39.3367 19.0545 39.2982 20.3433 39.2982 23.9559V28.8181H43.9766H48.655V23.8035V18.7889H44.1263C40.7704 18.7889 39.5589 18.8284 39.448 18.9413ZM29.193 33.9597V42.6559H32.7044H36.2159L36.1368 36.9113C36.0934 33.7519 36.0571 29.8384 36.0562 28.2151L36.0546 25.2635H32.6238H29.193V33.9597ZM0.0607563 46.8453C0.0607563 56.865 0.0754776 60.9639 0.0935673 55.9542C0.111657 50.9442 0.111657 42.7463 0.0935673 37.7365C0.0754776 32.7266 0.0607563 36.8256 0.0607563 46.8453ZM3.54907 36.0892C3.51563 36.1781 3.50328 37.5064 3.52187 39.0408L3.55556 41.8307H11.7895H20.0234L20.0568 38.8791L20.0904 35.9275H11.8502C5.29154 35.9275 3.5976 35.9605 3.54907 36.0892ZM29.193 50.273V56.1169L32.655 56.0831L36.117 56.0494V50.273V44.4967L32.655 44.463L29.193 44.4292V50.273ZM2.54291 48.5956C1.48497 48.6487 1.21039 48.9494 1.14501 50.1272C1.1016 50.9089 1.12705 51.0204 1.43308 51.3905L1.7688 51.7965H13.0481H24.3275V50.1416V48.4868L13.8168 48.5221C8.0358 48.5414 2.96259 48.5744 2.54291 48.5956ZM39.2567 52.0081C39.2109 52.0546 39.1735 54.1321 39.1735 56.6247C39.1735 61.0174 39.1815 61.1669 39.4321 61.4912L39.6906 61.8257H44.1729H48.655V56.8746V51.9234H43.9974C41.4357 51.9234 39.3024 51.9615 39.2567 52.0081Z" fill="#141414"/>
</svg>
