<svg width="1142" height="85" viewBox="0 0 1142 85" fill="none" xmlns="http://www.w3.org/2000/svg">
<g filter="url(#filter0_d_86_167)">
<rect x="19" y="11" width="1112" height="55" fill="#F2F6EE"/>
</g>
<line x1="319" y1="65.5" x2="472" y2="65.5" stroke="#287233"/>
<path d="M319.89 46V44.5713H320.261C320.681 44.5713 321.034 44.4723 321.318 44.2744C321.609 44.0703 321.844 43.7456 322.023 43.3003C322.209 42.8488 322.354 42.2612 322.459 41.5376C322.565 40.8078 322.639 39.9141 322.682 38.8564L322.905 33.9209L321.458 33.6704V32.4922H332.729V33.6704L331.217 33.9302V44.5713L332.729 44.8311V46H327.877V44.8311L329.39 44.5713V33.9302H324.723L324.5 38.8564C324.445 40.1243 324.333 41.2098 324.167 42.1128C324 43.0158 323.755 43.7549 323.434 44.3301C323.118 44.9053 322.71 45.3289 322.209 45.6011C321.708 45.867 321.096 46 320.372 46H319.89ZM338.648 46.1948C337.721 46.1948 336.914 45.9845 336.227 45.564C335.541 45.1372 335.009 44.5465 334.631 43.792C334.26 43.0374 334.075 42.1654 334.075 41.1758V40.7676C334.075 39.8151 334.27 38.9647 334.659 38.2163C335.055 37.4618 335.578 36.868 336.227 36.4351C336.883 35.9959 337.597 35.7764 338.37 35.7764C339.273 35.7764 340.028 35.9619 340.634 36.333C341.246 36.7041 341.707 37.2267 342.016 37.9009C342.325 38.5688 342.48 39.3574 342.48 40.2666V41.4077H335.967L335.939 41.4541C335.952 42.0973 336.063 42.6694 336.273 43.1704C336.49 43.6652 336.799 44.0549 337.201 44.3394C337.603 44.6239 338.086 44.7661 338.648 44.7661C339.267 44.7661 339.808 44.6795 340.272 44.5063C340.742 44.327 341.147 44.0827 341.487 43.7734L342.202 44.9609C341.843 45.3073 341.367 45.6011 340.773 45.8423C340.185 46.0773 339.477 46.1948 338.648 46.1948ZM336.023 39.979H340.652V39.7378C340.652 39.2554 340.566 38.8255 340.393 38.4482C340.226 38.0648 339.972 37.7648 339.632 37.5483C339.298 37.3257 338.877 37.2144 338.37 37.2144C337.962 37.2144 337.591 37.335 337.257 37.5762C336.923 37.8112 336.648 38.1328 336.431 38.541C336.215 38.9492 336.072 39.4131 336.004 39.9326L336.023 39.979ZM344.122 46V44.8311L345.634 44.5713V37.3999L344.122 37.1401V35.9619H348.974V37.1401L347.462 37.3999V40.3037H351.924V37.3999L350.412 37.1401V35.9619H351.924H353.761H355.273V37.1401L353.761 37.3999V44.5713L355.273 44.8311V46H350.412V44.8311L351.924 44.5713V41.7324H347.462V44.5713L348.974 44.8311V46H344.122ZM359.198 46V44.8311L360.71 44.5713V37.3813H358.595L358.456 38.9492H356.897V35.9619H366.397V38.9492H364.829L364.69 37.3813H362.538V44.5713L364.05 44.8311V46H359.198ZM370.961 46.1948C369.916 46.1948 369.121 45.9412 368.577 45.4341C368.033 44.9207 367.761 44.2002 367.761 43.2725C367.761 42.6354 367.934 42.0819 368.28 41.6118C368.633 41.1356 369.14 40.7676 369.802 40.5078C370.464 40.2419 371.255 40.1089 372.177 40.1089H373.967V39.1255C373.967 38.5194 373.782 38.0493 373.411 37.7153C373.046 37.3813 372.529 37.2144 371.861 37.2144C371.441 37.2144 371.076 37.2669 370.767 37.3721C370.457 37.471 370.176 37.6102 369.922 37.7896L369.728 39.1904H368.317V36.8896C368.769 36.5247 369.295 36.2495 369.895 36.064C370.494 35.8722 371.159 35.7764 371.889 35.7764C373.108 35.7764 374.063 36.0671 374.756 36.6484C375.449 37.2298 375.795 38.0617 375.795 39.144V43.9775C375.795 44.1074 375.795 44.2342 375.795 44.3579C375.801 44.4816 375.81 44.6053 375.823 44.729L376.797 44.8311V46H374.171C374.116 45.7279 374.072 45.4836 374.042 45.2671C374.011 45.0506 373.989 44.8341 373.977 44.6177C373.624 45.0692 373.182 45.4465 372.65 45.7495C372.124 46.0464 371.561 46.1948 370.961 46.1948ZM371.23 44.6641C371.837 44.6641 372.39 44.5187 372.891 44.228C373.392 43.9373 373.751 43.5879 373.967 43.1797V41.3613H372.112C371.271 41.3613 370.64 41.5623 370.219 41.9644C369.799 42.3664 369.588 42.8148 369.588 43.3096C369.588 43.7487 369.724 44.0858 369.997 44.3208C370.269 44.5496 370.68 44.6641 371.23 44.6641ZM383.161 46V44.8311L384.673 44.5713V37.3999L383.161 37.1401V35.9619H388.013V37.1401L386.501 37.3999V40.3037H390.963V37.3999L389.451 37.1401V35.9619H390.963H392.8H394.312V37.1401L392.8 37.3999V44.5713L394.312 44.8311V46H389.451V44.8311L390.963 44.5713V41.7324H386.501V44.5713L388.013 44.8311V46H383.161ZM400.436 46.1948C399.508 46.1948 398.707 45.9784 398.033 45.5454C397.365 45.1063 396.848 44.5033 396.483 43.7363C396.118 42.9632 395.936 42.0819 395.936 41.0923V40.8882C395.936 39.8986 396.118 39.0203 396.483 38.2534C396.848 37.4803 397.365 36.8742 398.033 36.4351C398.707 35.9959 399.502 35.7764 400.417 35.7764C401.345 35.7764 402.143 35.9959 402.811 36.4351C403.485 36.8742 404.004 37.4772 404.369 38.2441C404.734 39.0111 404.917 39.8924 404.917 40.8882V41.0923C404.917 42.0881 404.734 42.9725 404.369 43.7456C404.004 44.5125 403.488 45.1125 402.82 45.5454C402.152 45.9784 401.357 46.1948 400.436 46.1948ZM400.436 44.7661C401.017 44.7661 401.502 44.6084 401.892 44.293C402.288 43.9714 402.585 43.5353 402.783 42.9849C402.987 42.4282 403.089 41.7974 403.089 41.0923V40.8882C403.089 40.1831 402.987 39.5553 402.783 39.0049C402.585 38.4482 402.288 38.0122 401.892 37.6968C401.496 37.3752 401.005 37.2144 400.417 37.2144C399.836 37.2144 399.347 37.3752 398.951 37.6968C398.555 38.0122 398.258 38.4482 398.061 39.0049C397.863 39.5553 397.764 40.1831 397.764 40.8882V41.0923C397.764 41.7974 397.863 42.4282 398.061 42.9849C398.258 43.5353 398.555 43.9714 398.951 44.293C399.353 44.6084 399.848 44.7661 400.436 44.7661ZM406.781 46V44.8311L408.293 44.5713V37.3999L406.781 37.1401V35.9619H408.293H412.246C413.569 35.9619 414.596 36.1938 415.326 36.6577C416.056 37.1154 416.42 37.805 416.42 38.7266C416.42 39.1966 416.278 39.6172 415.994 39.9883C415.709 40.3532 415.307 40.6315 414.788 40.8232C415.412 40.9779 415.901 41.2686 416.253 41.6953C416.606 42.1159 416.782 42.5983 416.782 43.1426C416.782 44.0827 416.439 44.7939 415.752 45.2764C415.072 45.7588 414.117 46 412.886 46H406.781ZM410.121 44.5898H412.886C413.566 44.5898 414.079 44.4631 414.426 44.2095C414.772 43.9497 414.945 43.5786 414.945 43.0962C414.945 42.62 414.772 42.252 414.426 41.9922C414.079 41.7324 413.566 41.6025 412.886 41.6025H410.121V44.5898ZM410.121 40.2017H412.255C413.028 40.2017 413.609 40.0872 413.999 39.8584C414.395 39.6296 414.593 39.2832 414.593 38.8193C414.593 37.8607 413.81 37.3813 412.246 37.3813H410.121V40.2017ZM422.905 46.1948C421.978 46.1948 421.177 45.9784 420.502 45.5454C419.834 45.1063 419.318 44.5033 418.953 43.7363C418.588 42.9632 418.406 42.0819 418.406 41.0923V40.8882C418.406 39.8986 418.588 39.0203 418.953 38.2534C419.318 37.4803 419.834 36.8742 420.502 36.4351C421.177 35.9959 421.971 35.7764 422.887 35.7764C423.814 35.7764 424.612 35.9959 425.28 36.4351C425.954 36.8742 426.474 37.4772 426.839 38.2441C427.204 39.0111 427.386 39.8924 427.386 40.8882V41.0923C427.386 42.0881 427.204 42.9725 426.839 43.7456C426.474 44.5125 425.958 45.1125 425.29 45.5454C424.622 45.9784 423.827 46.1948 422.905 46.1948ZM422.905 44.7661C423.487 44.7661 423.972 44.6084 424.362 44.293C424.758 43.9714 425.055 43.5353 425.252 42.9849C425.457 42.4282 425.559 41.7974 425.559 41.0923V40.8882C425.559 40.1831 425.457 39.5553 425.252 39.0049C425.055 38.4482 424.758 38.0122 424.362 37.6968C423.966 37.3752 423.474 37.2144 422.887 37.2144C422.305 37.2144 421.817 37.3752 421.421 37.6968C421.025 38.0122 420.728 38.4482 420.53 39.0049C420.332 39.5553 420.233 40.1831 420.233 40.8882V41.0923C420.233 41.7974 420.332 42.4282 420.53 42.9849C420.728 43.5353 421.025 43.9714 421.421 44.293C421.823 44.6084 422.318 44.7661 422.905 44.7661ZM433.908 46.1948C432.999 46.1948 432.207 45.9845 431.533 45.564C430.859 45.1372 430.336 44.5465 429.965 43.792C429.594 43.0374 429.409 42.1654 429.409 41.1758V40.7861C429.409 39.8337 429.588 38.9801 429.947 38.2256C430.306 37.471 430.822 36.8742 431.496 36.4351C432.17 35.9959 432.974 35.7764 433.908 35.7764C434.718 35.7764 435.427 35.9093 436.033 36.1753C436.645 36.4412 437.158 36.8062 437.573 37.27L437.619 39.6821H436.19L435.875 37.9287C435.665 37.7122 435.402 37.5391 435.086 37.4092C434.771 37.2793 434.4 37.2144 433.973 37.2144C433.429 37.2144 432.95 37.3752 432.535 37.6968C432.127 38.0184 431.808 38.4482 431.58 38.9863C431.351 39.5244 431.236 40.1243 431.236 40.7861V41.1758C431.236 41.9056 431.341 42.5396 431.552 43.0776C431.768 43.6157 432.074 44.0332 432.47 44.3301C432.872 44.6208 433.348 44.7661 433.899 44.7661C434.517 44.7661 435.031 44.596 435.439 44.2559C435.847 43.9157 436.098 43.4487 436.19 42.855H437.833L437.851 42.9106C437.82 43.4858 437.65 44.0239 437.341 44.5249C437.032 45.0259 436.589 45.431 436.014 45.7402C435.445 46.0433 434.743 46.1948 433.908 46.1948ZM441.618 46V44.8311L443.13 44.5713V37.3813H441.015L440.875 38.9492H439.317V35.9619H448.817V38.9492H447.249L447.11 37.3813H444.958V44.5713L446.47 44.8311V46H441.618ZM454.114 46.1948C453.187 46.1948 452.379 45.9845 451.693 45.564C451.006 45.1372 450.474 44.5465 450.097 43.792C449.726 43.0374 449.541 42.1654 449.541 41.1758V40.7676C449.541 39.8151 449.735 38.9647 450.125 38.2163C450.521 37.4618 451.043 36.868 451.693 36.4351C452.348 35.9959 453.063 35.7764 453.836 35.7764C454.739 35.7764 455.493 35.9619 456.1 36.333C456.712 36.7041 457.173 37.2267 457.482 37.9009C457.791 38.5688 457.946 39.3574 457.946 40.2666V41.4077H451.433L451.405 41.4541C451.418 42.0973 451.529 42.6694 451.739 43.1704C451.956 43.6652 452.265 44.0549 452.667 44.3394C453.069 44.6239 453.551 44.7661 454.114 44.7661C454.733 44.7661 455.274 44.6795 455.738 44.5063C456.208 44.327 456.613 44.0827 456.953 43.7734L457.667 44.9609C457.309 45.3073 456.833 45.6011 456.239 45.8423C455.651 46.0773 454.943 46.1948 454.114 46.1948ZM451.489 39.979H456.118V39.7378C456.118 39.2554 456.032 38.8255 455.858 38.4482C455.691 38.0648 455.438 37.7648 455.098 37.5483C454.764 37.3257 454.343 37.2144 453.836 37.2144C453.428 37.2144 453.057 37.335 452.723 37.5762C452.389 37.8112 452.113 38.1328 451.897 38.541C451.681 38.9492 451.538 39.4131 451.47 39.9326L451.489 39.979ZM459.588 46V44.8311L461.1 44.5713V37.3999L459.588 37.1401V35.9619H462.918H464.431V37.1401L462.918 37.3999V43.0684L462.974 43.0869L467.399 35.9619H469.227H470.739V37.1401L469.227 37.3999V44.5713L470.739 44.8311V46H465.887V44.8311L467.399 44.5713V38.8936L467.344 38.875L462.918 46H459.588ZM465.219 34.1992C464.322 34.1992 463.617 33.958 463.104 33.4756C462.591 32.987 462.334 32.3561 462.334 31.583L462.353 31.5273H463.744C463.744 31.9727 463.862 32.3345 464.097 32.6128C464.338 32.8911 464.712 33.0303 465.219 33.0303C465.714 33.0303 466.082 32.8911 466.323 32.6128C466.564 32.3345 466.685 31.9727 466.685 31.5273H468.086L468.104 31.583C468.098 32.3561 467.839 32.987 467.325 33.4756C466.818 33.958 466.116 34.1992 465.219 34.1992Z" fill="#232323"/>
<path d="M487.058 46V44.8311L488.57 44.5713V33.9302L487.058 33.6704V32.4922H488.57H491.01L495.361 42.7437H495.417L499.628 32.4922H503.701V33.6704L502.189 33.9302V44.5713L503.701 44.8311V46H498.849V44.8311L500.445 44.5713V40.6562V34.9878L500.398 34.9785L496.01 45.5176H494.795L490.258 34.9971L490.212 35.0063L490.277 40.6562V44.5713L491.91 44.8311V46H487.058ZM509.796 46.1948C508.869 46.1948 508.068 45.9784 507.394 45.5454C506.726 45.1063 506.209 44.5033 505.844 43.7363C505.479 42.9632 505.297 42.0819 505.297 41.0923V40.8882C505.297 39.8986 505.479 39.0203 505.844 38.2534C506.209 37.4803 506.726 36.8742 507.394 36.4351C508.068 35.9959 508.862 35.7764 509.778 35.7764C510.706 35.7764 511.503 35.9959 512.171 36.4351C512.846 36.8742 513.365 37.4772 513.73 38.2441C514.095 39.0111 514.277 39.8924 514.277 40.8882V41.0923C514.277 42.0881 514.095 42.9725 513.73 43.7456C513.365 44.5125 512.849 45.1125 512.181 45.5454C511.513 45.9784 510.718 46.1948 509.796 46.1948ZM509.796 44.7661C510.378 44.7661 510.863 44.6084 511.253 44.293C511.649 43.9714 511.946 43.5353 512.144 42.9849C512.348 42.4282 512.45 41.7974 512.45 41.0923V40.8882C512.45 40.1831 512.348 39.5553 512.144 39.0049C511.946 38.4482 511.649 38.0122 511.253 37.6968C510.857 37.3752 510.365 37.2144 509.778 37.2144C509.196 37.2144 508.708 37.3752 508.312 37.6968C507.916 38.0122 507.619 38.4482 507.421 39.0049C507.223 39.5553 507.125 40.1831 507.125 40.8882V41.0923C507.125 41.7974 507.223 42.4282 507.421 42.9849C507.619 43.5353 507.916 43.9714 508.312 44.293C508.714 44.6084 509.209 44.7661 509.796 44.7661ZM516.142 46V44.8311L517.654 44.5713V37.3999L516.142 37.1401V35.9619H519.473H520.985V37.1401L519.473 37.3999V43.0684L519.528 43.0869L523.954 35.9619H525.781H527.293V37.1401L525.781 37.3999V44.5713L527.293 44.8311V46H522.441V44.8311L523.954 44.5713V38.8936L523.898 38.875L519.473 46H516.142ZM521.773 34.1992C520.877 34.1992 520.172 33.958 519.658 33.4756C519.145 32.987 518.888 32.3561 518.888 31.583L518.907 31.5273H520.298C520.298 31.9727 520.416 32.3345 520.651 32.6128C520.892 32.8911 521.266 33.0303 521.773 33.0303C522.268 33.0303 522.636 32.8911 522.877 32.6128C523.119 32.3345 523.239 31.9727 523.239 31.5273H524.64L524.659 31.583C524.653 32.3561 524.393 32.987 523.879 33.4756C523.372 33.958 522.67 34.1992 521.773 34.1992ZM533.825 46V44.8311L535.337 44.5713V37.3999L533.825 37.1401V35.9619H544.976V37.1401L543.464 37.3999V44.5713L544.976 44.8311V46H540.124V44.8311L541.636 44.5713V37.4092H537.165V44.5713L538.677 44.8311V46H533.825ZM546.284 49.8594V48.6812L547.704 48.4214V37.3999L546.191 37.1401V35.9619H549.271L549.438 37.1865C549.772 36.7288 550.178 36.3794 550.654 36.1382C551.136 35.897 551.693 35.7764 552.324 35.7764C553.153 35.7764 553.861 36.0021 554.448 36.4536C555.036 36.8989 555.484 37.5267 555.793 38.3369C556.103 39.141 556.257 40.0841 556.257 41.1665V41.3613C556.257 42.3262 556.1 43.1704 555.784 43.894C555.475 44.6177 555.03 45.1836 554.448 45.5918C553.867 45.9938 553.168 46.1948 552.352 46.1948C551.733 46.1948 551.189 46.0928 550.719 45.8887C550.255 45.6784 549.859 45.3691 549.531 44.9609V48.4214L551.127 48.6812V49.8594H546.284ZM551.786 44.7661C552.652 44.7661 553.307 44.4507 553.752 43.8198C554.198 43.189 554.42 42.3695 554.42 41.3613V41.1665C554.42 40.3996 554.321 39.7254 554.124 39.144C553.926 38.5565 553.629 38.0957 553.233 37.7617C552.843 37.4277 552.355 37.2607 551.767 37.2607C551.248 37.2607 550.802 37.3783 550.431 37.6133C550.06 37.8483 549.76 38.1699 549.531 38.5781V43.4673C549.76 43.8817 550.057 44.2033 550.422 44.4321C550.793 44.6548 551.248 44.7661 551.786 44.7661ZM562.974 46.1948C562.046 46.1948 561.245 45.9784 560.571 45.5454C559.903 45.1063 559.387 44.5033 559.022 43.7363C558.657 42.9632 558.475 42.0819 558.475 41.0923V40.8882C558.475 39.8986 558.657 39.0203 559.022 38.2534C559.387 37.4803 559.903 36.8742 560.571 36.4351C561.245 35.9959 562.04 35.7764 562.956 35.7764C563.883 35.7764 564.681 35.9959 565.349 36.4351C566.023 36.8742 566.543 37.4772 566.908 38.2441C567.273 39.0111 567.455 39.8924 567.455 40.8882V41.0923C567.455 42.0881 567.273 42.9725 566.908 43.7456C566.543 44.5125 566.026 45.1125 565.358 45.5454C564.69 45.9784 563.896 46.1948 562.974 46.1948ZM562.974 44.7661C563.556 44.7661 564.041 44.6084 564.431 44.293C564.826 43.9714 565.123 43.5353 565.321 42.9849C565.525 42.4282 565.627 41.7974 565.627 41.0923V40.8882C565.627 40.1831 565.525 39.5553 565.321 39.0049C565.123 38.4482 564.826 38.0122 564.431 37.6968C564.035 37.3752 563.543 37.2144 562.956 37.2144C562.374 37.2144 561.886 37.3752 561.49 37.6968C561.094 38.0122 560.797 38.4482 560.599 39.0049C560.401 39.5553 560.302 40.1831 560.302 40.8882V41.0923C560.302 41.7974 560.401 42.4282 560.599 42.9849C560.797 43.5353 561.094 43.9714 561.49 44.293C561.892 44.6084 562.387 44.7661 562.974 44.7661ZM573.068 49.8594V48.6812L574.58 48.4214V45.9536C574.382 46.0278 574.169 46.0866 573.94 46.1299C573.717 46.1732 573.479 46.1948 573.226 46.1948C572.452 46.1948 571.797 45.9969 571.259 45.6011C570.721 45.1991 570.309 44.6362 570.025 43.9126C569.74 43.1828 569.598 42.3324 569.598 41.3613V41.1665C569.598 40.0841 569.737 39.1379 570.016 38.3276C570.3 37.5174 570.711 36.8896 571.25 36.4443C571.794 35.999 572.459 35.7764 573.244 35.7764C573.492 35.7764 573.727 35.798 573.949 35.8413C574.172 35.8846 574.382 35.9434 574.58 36.0176V32.9653L573.068 32.7056V31.5273H576.408V36.0732C576.618 35.9805 576.847 35.9093 577.094 35.8599C577.342 35.8042 577.611 35.7764 577.901 35.7764C578.681 35.7764 579.342 35.999 579.887 36.4443C580.431 36.8896 580.845 37.5174 581.13 38.3276C581.414 39.1379 581.557 40.0841 581.557 41.1665V41.3613C581.557 42.3324 581.414 43.1828 581.13 43.9126C580.845 44.6362 580.431 45.1991 579.887 45.6011C579.349 45.9969 578.693 46.1948 577.92 46.1948C577.629 46.1948 577.357 46.1701 577.104 46.1206C576.85 46.0711 576.618 46.0031 576.408 45.9165V48.4214L577.92 48.6812V49.8594H573.068ZM573.689 44.7661C573.863 44.7661 574.023 44.7568 574.172 44.7383C574.32 44.7135 574.456 44.6795 574.58 44.6362V37.3442C574.456 37.3071 574.32 37.2762 574.172 37.2515C574.03 37.2267 573.875 37.2144 573.708 37.2144C573.17 37.2144 572.734 37.3813 572.4 37.7153C572.066 38.0431 571.819 38.5039 571.658 39.0977C571.503 39.6914 571.426 40.381 571.426 41.1665V41.3613C571.426 42.3942 571.602 43.2199 571.955 43.8384C572.313 44.4569 572.892 44.7661 573.689 44.7661ZM577.363 44.7661C578.161 44.7661 578.752 44.4538 579.135 43.8291C579.525 43.2044 579.72 42.3818 579.72 41.3613V41.1665C579.72 40.3934 579.633 39.71 579.46 39.1162C579.287 38.5225 579.024 38.0586 578.671 37.7246C578.325 37.3844 577.883 37.2144 577.345 37.2144C577.159 37.2144 576.989 37.2298 576.834 37.2607C576.68 37.2855 576.538 37.3226 576.408 37.3721V44.6362C576.531 44.6795 576.671 44.7135 576.825 44.7383C576.986 44.7568 577.165 44.7661 577.363 44.7661ZM583.31 46V44.8311L584.822 44.5713V37.3999L583.31 37.1401V35.9619H586.641H588.153V37.1401L586.641 37.3999V43.0684L586.696 43.0869L591.122 35.9619H592.949H594.461V37.1401L592.949 37.3999V44.5713L594.461 44.8311V46H589.609V44.8311L591.122 44.5713V38.8936L591.066 38.875L586.641 46H583.31ZM596.001 46L596.029 44.4414L596.41 44.4321C596.849 44.4321 597.195 44.2961 597.449 44.0239C597.702 43.7456 597.885 43.3003 597.996 42.688C598.107 42.0695 598.163 41.2562 598.163 40.248V37.3999L596.651 37.1401V35.9619H605.223H606.735V37.1401L605.223 37.3999V44.5713L606.735 44.8311V46H601.883V44.8311L603.396 44.5713V37.4092H599.991V40.248C599.991 42.2272 599.728 43.6807 599.202 44.6084C598.683 45.5361 597.789 46 596.521 46H596.001ZM614.296 39.4131C615.484 39.4131 616.409 39.7161 617.07 40.3223C617.732 40.9222 618.063 41.7046 618.063 42.6694C618.063 43.6405 617.729 44.4383 617.061 45.063C616.399 45.6877 615.478 46 614.296 46H608.47V44.8311L609.982 44.5713V37.3999L608.47 37.1401V35.9619H613.322V37.1401L611.81 37.3999V39.4131H614.296ZM614.296 44.5713C614.958 44.5713 615.444 44.3981 615.753 44.0518C616.068 43.6992 616.226 43.2601 616.226 42.7344C616.226 42.2272 616.068 41.785 615.753 41.4077C615.438 41.0304 614.952 40.8418 614.296 40.8418H611.81V44.5713H614.296Z" fill="black"/>
<path d="M633.89 46V44.8311L635.402 44.5713V33.9302L633.89 33.6704V32.4922H643.687V35.4795H642.119L641.979 33.9302H637.322V38.0215H640.653C641.618 38.0215 642.437 38.1823 643.111 38.5039C643.792 38.8255 644.311 39.2832 644.67 39.877C645.029 40.4645 645.208 41.1634 645.208 41.9736C645.208 42.7839 645.029 43.492 644.67 44.0981C644.311 44.7043 643.792 45.1743 643.111 45.5083C642.431 45.8361 641.611 46 640.653 46H633.89ZM637.322 44.5713H640.653C641.568 44.5713 642.252 44.3239 642.703 43.8291C643.155 43.3343 643.38 42.7096 643.38 41.9551C643.38 41.2253 643.155 40.6284 642.703 40.1646C642.252 39.6945 641.568 39.4595 640.653 39.4595H637.322V44.5713ZM646.85 46V44.8311L648.362 44.5713V37.3999L646.85 37.1401V35.9619H650.181H651.693V37.1401L650.181 37.3999V43.0684L650.236 43.0869L654.662 35.9619H656.489H658.001V37.1401L656.489 37.3999V44.5713L658.001 44.8311V46H653.149V44.8311L654.662 44.5713V38.8936L654.606 38.875L650.181 46H646.85ZM664.375 46.1948C663.453 46.1948 662.656 45.9876 661.981 45.5732C661.313 45.1527 660.797 44.5744 660.432 43.8384C660.067 43.0962 659.885 42.2458 659.885 41.2871V39.9883C659.885 38.6709 660.07 37.5298 660.441 36.5649C660.819 35.6001 661.351 34.8239 662.037 34.2363C662.724 33.6488 663.534 33.2622 664.468 33.0767C665.247 32.9344 665.81 32.7643 666.156 32.5664C666.509 32.3685 666.685 32.0438 666.685 31.5923H668.095L668.114 31.6479C668.126 32.1922 668.067 32.6344 667.938 32.9746C667.814 33.3148 667.616 33.5869 667.344 33.791C667.072 33.9951 666.725 34.1559 666.305 34.2734C665.884 34.391 665.386 34.4992 664.811 34.5981C664.248 34.6909 663.735 34.8672 663.271 35.127C662.813 35.3805 662.433 35.73 662.13 36.1753C661.833 36.6144 661.638 37.1618 661.545 37.8174L661.583 37.8638C661.947 37.4741 662.405 37.1556 662.956 36.9082C663.512 36.6608 664.103 36.5371 664.728 36.5371C665.575 36.5371 666.308 36.7319 666.926 37.1216C667.545 37.5112 668.021 38.0493 668.355 38.7358C668.695 39.4162 668.865 40.1986 668.865 41.083V41.2871C668.865 42.2458 668.683 43.0962 668.318 43.8384C667.953 44.5744 667.433 45.1527 666.759 45.5732C666.091 45.9876 665.297 46.1948 664.375 46.1948ZM664.375 44.7661C664.956 44.7661 665.445 44.6177 665.841 44.3208C666.237 44.0177 666.534 43.6064 666.731 43.0869C666.936 42.5612 667.038 41.9613 667.038 41.2871V41.083C667.038 40.4893 666.936 39.9574 666.731 39.4873C666.527 39.0173 666.227 38.6462 665.832 38.374C665.436 38.1019 664.944 37.9658 664.356 37.9658C663.775 37.9658 663.286 38.1019 662.891 38.374C662.501 38.6462 662.207 39.0173 662.009 39.4873C661.811 39.9574 661.712 40.4893 661.712 41.083V41.2871C661.712 41.9613 661.811 42.5612 662.009 43.0869C662.207 43.6064 662.504 44.0177 662.9 44.3208C663.296 44.6177 663.787 44.7661 664.375 44.7661ZM670.359 46L670.387 44.4414L670.767 44.4321C671.206 44.4321 671.553 44.2961 671.806 44.0239C672.06 43.7456 672.242 43.3003 672.354 42.688C672.465 42.0695 672.521 41.2562 672.521 40.248V37.3999L671.008 37.1401V35.9619H679.581H681.093V37.1401L679.581 37.3999V44.5713L681.093 44.8311V46H676.241V44.8311L677.753 44.5713V37.4092H674.348V40.248C674.348 42.2272 674.085 43.6807 673.56 44.6084C673.04 45.5361 672.146 46 670.878 46H670.359ZM682.828 46V44.8311L684.34 44.5713V37.3999L682.828 37.1401V35.9619H686.158H687.67V37.1401L686.158 37.3999V43.0684L686.214 43.0869L690.639 35.9619H692.467H693.979V37.1401L692.467 37.3999V44.5713L693.979 44.8311V46H689.127V44.8311L690.639 44.5713V38.8936L690.583 38.875L686.158 46H682.828ZM700.102 46.1948C699.174 46.1948 698.373 45.9784 697.699 45.5454C697.031 45.1063 696.515 44.5033 696.15 43.7363C695.785 42.9632 695.603 42.0819 695.603 41.0923V40.8882C695.603 39.8986 695.785 39.0203 696.15 38.2534C696.515 37.4803 697.031 36.8742 697.699 36.4351C698.373 35.9959 699.168 35.7764 700.083 35.7764C701.011 35.7764 701.809 35.9959 702.477 36.4351C703.151 36.8742 703.671 37.4772 704.036 38.2441C704.401 39.0111 704.583 39.8924 704.583 40.8882V41.0923C704.583 42.0881 704.401 42.9725 704.036 43.7456C703.671 44.5125 703.154 45.1125 702.486 45.5454C701.818 45.9784 701.024 46.1948 700.102 46.1948ZM700.102 44.7661C700.683 44.7661 701.169 44.6084 701.559 44.293C701.954 43.9714 702.251 43.5353 702.449 42.9849C702.653 42.4282 702.755 41.7974 702.755 41.0923V40.8882C702.755 40.1831 702.653 39.5553 702.449 39.0049C702.251 38.4482 701.954 38.0122 701.559 37.6968C701.163 37.3752 700.671 37.2144 700.083 37.2144C699.502 37.2144 699.014 37.3752 698.618 37.6968C698.222 38.0122 697.925 38.4482 697.727 39.0049C697.529 39.5553 697.43 40.1831 697.43 40.8882V41.0923C697.43 41.7974 697.529 42.4282 697.727 42.9849C697.925 43.5353 698.222 43.9714 698.618 44.293C699.02 44.6084 699.514 44.7661 700.102 44.7661ZM708.368 46V44.8311L709.88 44.5713V37.3813H707.765L707.626 38.9492H706.067V35.9619H715.567V38.9492H714L713.86 37.3813H711.708V44.5713L713.22 44.8311V46H708.368ZM720.865 46.1948C719.937 46.1948 719.13 45.9845 718.443 45.564C717.757 45.1372 717.225 44.5465 716.848 43.792C716.477 43.0374 716.291 42.1654 716.291 41.1758V40.7676C716.291 39.8151 716.486 38.9647 716.875 38.2163C717.271 37.4618 717.794 36.868 718.443 36.4351C719.099 35.9959 719.813 35.7764 720.586 35.7764C721.489 35.7764 722.244 35.9619 722.85 36.333C723.462 36.7041 723.923 37.2267 724.232 37.9009C724.542 38.5688 724.696 39.3574 724.696 40.2666V41.4077H718.184L718.156 41.4541C718.168 42.0973 718.279 42.6694 718.49 43.1704C718.706 43.6652 719.015 44.0549 719.417 44.3394C719.819 44.6239 720.302 44.7661 720.865 44.7661C721.483 44.7661 722.024 44.6795 722.488 44.5063C722.958 44.327 723.363 44.0827 723.704 43.7734L724.418 44.9609C724.059 45.3073 723.583 45.6011 722.989 45.8423C722.402 46.0773 721.694 46.1948 720.865 46.1948ZM718.239 39.979H722.869V39.7378C722.869 39.2554 722.782 38.8255 722.609 38.4482C722.442 38.0648 722.188 37.7648 721.848 37.5483C721.514 37.3257 721.094 37.2144 720.586 37.2144C720.178 37.2144 719.807 37.335 719.473 37.5762C719.139 37.8112 718.864 38.1328 718.647 38.541C718.431 38.9492 718.289 39.4131 718.221 39.9326L718.239 39.979ZM726.338 46V44.8311L727.851 44.5713V37.3999L726.338 37.1401V35.9619H731.19V37.1401L729.678 37.3999V40.2017H730.643L732.74 37.3906C733.117 36.8649 733.485 36.466 733.844 36.1938C734.209 35.9217 734.617 35.7856 735.068 35.7856C735.353 35.7856 735.588 35.8228 735.773 35.897C735.959 35.965 736.169 36.0732 736.404 36.2217L736.145 37.4648C735.879 37.4215 735.724 37.3968 735.681 37.3906C735.644 37.3844 735.563 37.3813 735.439 37.3813C735.211 37.3813 734.985 37.4648 734.762 37.6318C734.546 37.7988 734.354 37.9967 734.187 38.2256L732.248 40.7397L735.412 44.5991L736.701 44.8311V46H734.261L730.866 41.7417H729.678V44.5713L731.19 44.8311V46H726.338ZM741.099 46.1948C740.053 46.1948 739.259 45.9412 738.714 45.4341C738.17 44.9207 737.898 44.2002 737.898 43.2725C737.898 42.6354 738.071 42.0819 738.417 41.6118C738.77 41.1356 739.277 40.7676 739.939 40.5078C740.601 40.2419 741.392 40.1089 742.314 40.1089H744.104V39.1255C744.104 38.5194 743.919 38.0493 743.548 37.7153C743.183 37.3813 742.667 37.2144 741.999 37.2144C741.578 37.2144 741.213 37.2669 740.904 37.3721C740.595 37.471 740.313 37.6102 740.06 37.7896L739.865 39.1904H738.455V36.8896C738.906 36.5247 739.432 36.2495 740.032 36.064C740.632 35.8722 741.297 35.7764 742.026 35.7764C743.245 35.7764 744.2 36.0671 744.893 36.6484C745.586 37.2298 745.932 38.0617 745.932 39.144V43.9775C745.932 44.1074 745.932 44.2342 745.932 44.3579C745.938 44.4816 745.948 44.6053 745.96 44.729L746.934 44.8311V46H744.309C744.253 45.7279 744.21 45.4836 744.179 45.2671C744.148 45.0506 744.126 44.8341 744.114 44.6177C743.761 45.0692 743.319 45.4465 742.787 45.7495C742.261 46.0464 741.699 46.1948 741.099 46.1948ZM741.368 44.6641C741.974 44.6641 742.527 44.5187 743.028 44.228C743.529 43.9373 743.888 43.5879 744.104 43.1797V41.3613H742.249C741.408 41.3613 740.777 41.5623 740.356 41.9644C739.936 42.3664 739.726 42.8148 739.726 43.3096C739.726 43.7487 739.862 44.0858 740.134 44.3208C740.406 44.5496 740.817 44.6641 741.368 44.6641Z" fill="black"/>
<path d="M768.302 46.1948C767.43 46.1948 766.647 46.0278 765.955 45.6938C765.262 45.3599 764.671 44.8898 764.183 44.2837C763.7 43.6714 763.329 42.9478 763.069 42.1128C762.816 41.2778 762.689 40.3563 762.689 39.3481V39.1533C762.689 38.1514 762.816 37.2329 763.069 36.3979C763.329 35.5568 763.7 34.8301 764.183 34.2178C764.671 33.6055 765.262 33.1323 765.955 32.7983C766.647 32.4644 767.43 32.2974 768.302 32.2974C769.223 32.2974 770.034 32.4644 770.732 32.7983C771.431 33.1323 772.016 33.6055 772.486 34.2178C772.962 34.8301 773.321 35.5568 773.562 36.3979C773.803 37.2329 773.924 38.1514 773.924 39.1533V39.3481C773.924 40.3563 773.803 41.2778 773.562 42.1128C773.321 42.9478 772.962 43.6714 772.486 44.2837C772.016 44.8898 771.431 45.3599 770.732 45.6938C770.034 46.0278 769.223 46.1948 768.302 46.1948ZM768.302 44.6733C769.199 44.6733 769.922 44.4507 770.473 44.0054C771.029 43.5601 771.438 42.9385 771.697 42.1406C771.957 41.3366 772.087 40.4058 772.087 39.3481V39.1348C772.087 38.0833 771.954 37.1618 771.688 36.3701C771.428 35.5723 771.02 34.9507 770.463 34.5054C769.907 34.0539 769.186 33.8281 768.302 33.8281C767.492 33.8281 766.805 34.0539 766.242 34.5054C765.679 34.9569 765.253 35.5815 764.962 36.3794C764.671 37.1711 764.526 38.0895 764.526 39.1348V39.3481C764.526 40.3996 764.671 41.3273 764.962 42.1313C765.253 42.9292 765.679 43.5539 766.242 44.0054C766.805 44.4507 767.492 44.6733 768.302 44.6733ZM780.678 46.1948C779.769 46.1948 778.977 45.9845 778.303 45.564C777.629 45.1372 777.106 44.5465 776.735 43.792C776.364 43.0374 776.178 42.1654 776.178 41.1758V40.7861C776.178 39.8337 776.358 38.9801 776.716 38.2256C777.075 37.471 777.591 36.8742 778.266 36.4351C778.94 35.9959 779.744 35.7764 780.678 35.7764C781.488 35.7764 782.196 35.9093 782.802 36.1753C783.415 36.4412 783.928 36.8062 784.342 37.27L784.389 39.6821H782.96L782.645 37.9287C782.434 37.7122 782.171 37.5391 781.856 37.4092C781.541 37.2793 781.169 37.2144 780.743 37.2144C780.198 37.2144 779.719 37.3752 779.305 37.6968C778.896 38.0184 778.578 38.4482 778.349 38.9863C778.12 39.5244 778.006 40.1243 778.006 40.7861V41.1758C778.006 41.9056 778.111 42.5396 778.321 43.0776C778.538 43.6157 778.844 44.0332 779.24 44.3301C779.642 44.6208 780.118 44.7661 780.668 44.7661C781.287 44.7661 781.8 44.596 782.208 44.2559C782.617 43.9157 782.867 43.4487 782.96 42.855H784.602L784.621 42.9106C784.59 43.4858 784.42 44.0239 784.11 44.5249C783.801 45.0259 783.359 45.431 782.784 45.7402C782.215 46.0433 781.513 46.1948 780.678 46.1948ZM788.387 46V44.8311L789.899 44.5713V37.3813H787.784L787.645 38.9492H786.086V35.9619H795.586V38.9492H794.019L793.879 37.3813H791.727V44.5713L793.239 44.8311V46H788.387ZM800.151 46.1948C799.106 46.1948 798.311 45.9412 797.767 45.4341C797.222 44.9207 796.95 44.2002 796.95 43.2725C796.95 42.6354 797.123 42.0819 797.47 41.6118C797.822 41.1356 798.329 40.7676 798.991 40.5078C799.653 40.2419 800.445 40.1089 801.366 40.1089H803.157V39.1255C803.157 38.5194 802.971 38.0493 802.6 37.7153C802.235 37.3813 801.719 37.2144 801.051 37.2144C800.63 37.2144 800.265 37.2669 799.956 37.3721C799.647 37.471 799.365 37.6102 799.112 37.7896L798.917 39.1904H797.507V36.8896C797.958 36.5247 798.484 36.2495 799.084 36.064C799.684 35.8722 800.349 35.7764 801.079 35.7764C802.297 35.7764 803.253 36.0671 803.945 36.6484C804.638 37.2298 804.984 38.0617 804.984 39.144V43.9775C804.984 44.1074 804.984 44.2342 804.984 44.3579C804.991 44.4816 805 44.6053 805.012 44.729L805.986 44.8311V46H803.361C803.305 45.7279 803.262 45.4836 803.231 45.2671C803.2 45.0506 803.178 44.8341 803.166 44.6177C802.813 45.0692 802.371 45.4465 801.839 45.7495C801.314 46.0464 800.751 46.1948 800.151 46.1948ZM800.42 44.6641C801.026 44.6641 801.58 44.5187 802.081 44.228C802.582 43.9373 802.94 43.5879 803.157 43.1797V41.3613H801.301C800.46 41.3613 799.829 41.5623 799.409 41.9644C798.988 42.3664 798.778 42.8148 798.778 43.3096C798.778 43.7487 798.914 44.0858 799.186 44.3208C799.458 44.5496 799.869 44.6641 800.42 44.6641ZM807.359 46L807.387 44.4414L807.768 44.4321C808.207 44.4321 808.553 44.2961 808.807 44.0239C809.06 43.7456 809.243 43.3003 809.354 42.688C809.465 42.0695 809.521 41.2562 809.521 40.248V37.3999L808.009 37.1401V35.9619H816.581H818.093V37.1401L816.581 37.3999V44.5713L818.093 44.8311V46H813.241V44.8311L814.753 44.5713V37.4092H811.349V40.248C811.349 42.2272 811.086 43.6807 810.56 44.6084C810.041 45.5361 809.147 46 807.879 46H807.359ZM825.654 39.4131C826.842 39.4131 827.766 39.7161 828.428 40.3223C829.09 40.9222 829.421 41.7046 829.421 42.6694C829.421 43.6405 829.087 44.4383 828.419 45.063C827.757 45.6877 826.836 46 825.654 46H819.828V44.8311L821.34 44.5713V37.3999L819.828 37.1401V35.9619H824.68V37.1401L823.168 37.3999V39.4131H825.654ZM825.654 44.5713C826.316 44.5713 826.802 44.3981 827.111 44.0518C827.426 43.6992 827.584 43.2601 827.584 42.7344C827.584 42.2272 827.426 41.785 827.111 41.4077C826.795 41.0304 826.31 40.8418 825.654 40.8418H823.168V44.5713H825.654ZM831.072 46V44.8311L832.584 44.5713V37.3999L831.072 37.1401V35.9619H835.924V37.1401L834.412 37.3999V40.3037H838.875V37.3999L837.362 37.1401V35.9619H838.875H840.711H842.224V37.1401L840.711 37.3999V44.5713L842.224 44.8311V46H837.362V44.8311L838.875 44.5713V41.7324H834.412V44.5713L835.924 44.8311V46H831.072ZM848.347 46.1948C847.419 46.1948 846.618 45.9784 845.944 45.5454C845.276 45.1063 844.759 44.5033 844.395 43.7363C844.03 42.9632 843.847 42.0819 843.847 41.0923V40.8882C843.847 39.8986 844.03 39.0203 844.395 38.2534C844.759 37.4803 845.276 36.8742 845.944 36.4351C846.618 35.9959 847.413 35.7764 848.328 35.7764C849.256 35.7764 850.054 35.9959 850.722 36.4351C851.396 36.8742 851.915 37.4772 852.28 38.2441C852.645 39.0111 852.828 39.8924 852.828 40.8882V41.0923C852.828 42.0881 852.645 42.9725 852.28 43.7456C851.915 44.5125 851.399 45.1125 850.731 45.5454C850.063 45.9784 849.268 46.1948 848.347 46.1948ZM848.347 44.7661C848.928 44.7661 849.414 44.6084 849.803 44.293C850.199 43.9714 850.496 43.5353 850.694 42.9849C850.898 42.4282 851 41.7974 851 41.0923V40.8882C851 40.1831 850.898 39.5553 850.694 39.0049C850.496 38.4482 850.199 38.0122 849.803 37.6968C849.407 37.3752 848.916 37.2144 848.328 37.2144C847.747 37.2144 847.258 37.3752 846.862 37.6968C846.466 38.0122 846.17 38.4482 845.972 39.0049C845.774 39.5553 845.675 40.1831 845.675 40.8882V41.0923C845.675 41.7974 845.774 42.4282 845.972 42.9849C846.17 43.5353 846.466 43.9714 846.862 44.293C847.264 44.6084 847.759 44.7661 848.347 44.7661ZM859.387 46.1948C858.459 46.1948 857.652 45.9845 856.965 45.564C856.279 45.1372 855.747 44.5465 855.37 43.792C854.999 43.0374 854.813 42.1654 854.813 41.1758V40.7676C854.813 39.8151 855.008 38.9647 855.397 38.2163C855.793 37.4618 856.316 36.868 856.965 36.4351C857.621 35.9959 858.335 35.7764 859.108 35.7764C860.011 35.7764 860.766 35.9619 861.372 36.333C861.984 36.7041 862.445 37.2267 862.754 37.9009C863.064 38.5688 863.218 39.3574 863.218 40.2666V41.4077H856.706L856.678 41.4541C856.69 42.0973 856.801 42.6694 857.012 43.1704C857.228 43.6652 857.537 44.0549 857.939 44.3394C858.341 44.6239 858.824 44.7661 859.387 44.7661C860.005 44.7661 860.546 44.6795 861.01 44.5063C861.48 44.327 861.885 44.0827 862.226 43.7734L862.94 44.9609C862.581 45.3073 862.105 45.6011 861.511 45.8423C860.924 46.0773 860.215 46.1948 859.387 46.1948ZM856.761 39.979H861.391V39.7378C861.391 39.2554 861.304 38.8255 861.131 38.4482C860.964 38.0648 860.71 37.7648 860.37 37.5483C860.036 37.3257 859.616 37.2144 859.108 37.2144C858.7 37.2144 858.329 37.335 857.995 37.5762C857.661 37.8112 857.386 38.1328 857.169 38.541C856.953 38.9492 856.811 39.4131 856.743 39.9326L856.761 39.979Z" fill="black"/>
<path d="M871.904 30C874.263 34.2312 871.896 37.4593 871.886 37.4593C871.859 37.4593 869.96 35.2039 869.733 34.9018C869.625 34.7583 869.436 34.5503 869.313 34.4395C869.121 34.2669 869.049 34.238 868.804 34.2363L868.519 34.2345L867.307 35.6829C866.64 36.4795 866.073 37.1934 866.047 37.2693C865.964 37.507 865.993 37.7844 866.121 37.9885C866.188 38.0954 866.961 39.0468 867.837 40.1028C868.714 41.1587 869.799 42.4655 870.248 43.0069C871.113 44.0485 871.316 44.2978 873.122 46.5412L874.263 47.9579H874.494C874.722 47.9579 874.734 47.948 875.185 47.3763C875.438 47.0564 875.897 46.486 876.206 46.1087C876.515 45.7314 876.939 45.208 877.149 44.9455C877.49 44.5185 878.506 43.2737 880.481 40.861C880.844 40.4172 881.53 39.5919 882.005 39.0269C882.908 37.9543 882.997 37.8237 883 37.5786C883.003 37.3341 882.843 37.096 881.954 36.0144C880.766 34.5701 880.524 34.3085 880.304 34.2312C879.984 34.1189 879.817 34.2291 879.229 34.9404C877.897 36.5492 877.123 37.4593 877.086 37.4593C877.064 37.4593 874.5 33.9579 877.08 30.1074" stroke="#141414"/>
<defs>
<filter id="filter0_d_86_167" x="0" y="0" width="1142" height="85" filterUnits="userSpaceOnUse" color-interpolation-filters="sRGB">
<feFlood flood-opacity="0" result="BackgroundImageFix"/>
<feColorMatrix in="SourceAlpha" type="matrix" values="0 0 0 0 0 0 0 0 0 0 0 0 0 0 0 0 0 0 127 0" result="hardAlpha"/>
<feOffset dx="-4" dy="4"/>
<feGaussianBlur stdDeviation="7.5"/>
<feComposite in2="hardAlpha" operator="out"/>
<feColorMatrix type="matrix" values="0 0 0 0 0 0 0 0 0 0 0 0 0 0 0 0 0 0 0.25 0"/>
<feBlend mode="normal" in2="BackgroundImageFix" result="effect1_dropShadow_86_167"/>
<feBlend mode="normal" in="SourceGraphic" in2="effect1_dropShadow_86_167" result="shape"/>
</filter>
</defs>
</svg>
